<mxfile host="app.diagrams.net" agent="Mozilla/5.0 (Windows NT 10.0; Win64; x64) AppleWebKit/537.36 (KHTML, like Gecko) Chrome/128.0.0.0 Safari/537.36" version="24.7.16">
  <diagram name="Page-1" id="G56t6vPBGJ6bHQMgY4aB">
    <mxGraphModel dx="1050" dy="618" grid="1" gridSize="10" guides="1" tooltips="1" connect="1" arrows="1" fold="1" page="1" pageScale="1" pageWidth="850" pageHeight="1100" math="0" shadow="0">
      <root>
        <mxCell id="0" />
        <mxCell id="1" parent="0" />
        <mxCell id="XDIb_LJNzdVxrL4WUdWw-1" value="User" style="ellipse;whiteSpace=wrap;html=1;" vertex="1" parent="1">
          <mxGeometry x="80" y="130" width="120" height="80" as="geometry" />
        </mxCell>
        <mxCell id="XDIb_LJNzdVxrL4WUdWw-3" value="User" style="ellipse;whiteSpace=wrap;html=1;" vertex="1" parent="1">
          <mxGeometry x="80" y="290" width="120" height="80" as="geometry" />
        </mxCell>
        <mxCell id="XDIb_LJNzdVxrL4WUdWw-4" value="Application" style="whiteSpace=wrap;html=1;aspect=fixed;" vertex="1" parent="1">
          <mxGeometry x="400" y="200" width="80" height="80" as="geometry" />
        </mxCell>
        <mxCell id="XDIb_LJNzdVxrL4WUdWw-5" value="Database" style="whiteSpace=wrap;html=1;aspect=fixed;" vertex="1" parent="1">
          <mxGeometry x="560" y="200" width="80" height="80" as="geometry" />
        </mxCell>
        <mxCell id="XDIb_LJNzdVxrL4WUdWw-8" value="" style="endArrow=classic;html=1;rounded=0;exitX=1;exitY=0.5;exitDx=0;exitDy=0;entryX=-0.015;entryY=0.865;entryDx=0;entryDy=0;entryPerimeter=0;" edge="1" parent="1" source="XDIb_LJNzdVxrL4WUdWw-3" target="XDIb_LJNzdVxrL4WUdWw-4">
          <mxGeometry width="50" height="50" relative="1" as="geometry">
            <mxPoint x="400" y="350" as="sourcePoint" />
            <mxPoint x="450" y="300" as="targetPoint" />
          </mxGeometry>
        </mxCell>
        <mxCell id="XDIb_LJNzdVxrL4WUdWw-9" value="" style="endArrow=classic;html=1;rounded=0;exitX=0.997;exitY=0.64;exitDx=0;exitDy=0;entryX=0.015;entryY=0.365;entryDx=0;entryDy=0;entryPerimeter=0;exitPerimeter=0;" edge="1" parent="1" source="XDIb_LJNzdVxrL4WUdWw-1" target="XDIb_LJNzdVxrL4WUdWw-4">
          <mxGeometry width="50" height="50" relative="1" as="geometry">
            <mxPoint x="210" y="340" as="sourcePoint" />
            <mxPoint x="409" y="279" as="targetPoint" />
          </mxGeometry>
        </mxCell>
        <mxCell id="XDIb_LJNzdVxrL4WUdWw-10" value="" style="endArrow=classic;html=1;rounded=0;exitX=0;exitY=0.5;exitDx=0;exitDy=0;entryX=1;entryY=1;entryDx=0;entryDy=0;" edge="1" parent="1" source="XDIb_LJNzdVxrL4WUdWw-4" target="XDIb_LJNzdVxrL4WUdWw-1">
          <mxGeometry width="50" height="50" relative="1" as="geometry">
            <mxPoint x="210" y="191" as="sourcePoint" />
            <mxPoint x="411" y="239" as="targetPoint" />
          </mxGeometry>
        </mxCell>
        <mxCell id="XDIb_LJNzdVxrL4WUdWw-11" value="" style="endArrow=classic;html=1;rounded=0;" edge="1" parent="1" target="XDIb_LJNzdVxrL4WUdWw-3">
          <mxGeometry width="50" height="50" relative="1" as="geometry">
            <mxPoint x="400" y="250" as="sourcePoint" />
            <mxPoint x="192" y="208" as="targetPoint" />
          </mxGeometry>
        </mxCell>
        <mxCell id="XDIb_LJNzdVxrL4WUdWw-12" value="" style="endArrow=classic;html=1;rounded=0;exitX=1;exitY=0.25;exitDx=0;exitDy=0;entryX=0;entryY=0.25;entryDx=0;entryDy=0;" edge="1" parent="1" source="XDIb_LJNzdVxrL4WUdWw-4" target="XDIb_LJNzdVxrL4WUdWw-5">
          <mxGeometry width="50" height="50" relative="1" as="geometry">
            <mxPoint x="210" y="191" as="sourcePoint" />
            <mxPoint x="411" y="239" as="targetPoint" />
          </mxGeometry>
        </mxCell>
        <mxCell id="XDIb_LJNzdVxrL4WUdWw-14" value="" style="endArrow=classic;html=1;rounded=0;exitX=0;exitY=0.75;exitDx=0;exitDy=0;entryX=1;entryY=0.75;entryDx=0;entryDy=0;" edge="1" parent="1" source="XDIb_LJNzdVxrL4WUdWw-5" target="XDIb_LJNzdVxrL4WUdWw-4">
          <mxGeometry width="50" height="50" relative="1" as="geometry">
            <mxPoint x="490" y="230" as="sourcePoint" />
            <mxPoint x="570" y="230" as="targetPoint" />
          </mxGeometry>
        </mxCell>
        <mxCell id="XDIb_LJNzdVxrL4WUdWw-15" value="Log in and starts game" style="text;html=1;align=center;verticalAlign=middle;resizable=0;points=[];autosize=1;strokeColor=none;fillColor=none;" vertex="1" parent="1">
          <mxGeometry x="200" y="158" width="150" height="30" as="geometry" />
        </mxCell>
        <mxCell id="XDIb_LJNzdVxrL4WUdWw-16" value="Finds data on user" style="text;html=1;align=center;verticalAlign=middle;resizable=0;points=[];autosize=1;strokeColor=none;fillColor=none;" vertex="1" parent="1">
          <mxGeometry x="460" y="180" width="120" height="30" as="geometry" />
        </mxCell>
        <mxCell id="XDIb_LJNzdVxrL4WUdWw-17" value="Returns data on user" style="text;html=1;align=center;verticalAlign=middle;resizable=0;points=[];autosize=1;strokeColor=none;fillColor=none;" vertex="1" parent="1">
          <mxGeometry x="460" y="280" width="140" height="30" as="geometry" />
        </mxCell>
        <mxCell id="XDIb_LJNzdVxrL4WUdWw-18" value="Log in and starts game" style="text;html=1;align=center;verticalAlign=middle;resizable=0;points=[];autosize=1;strokeColor=none;fillColor=none;" vertex="1" parent="1">
          <mxGeometry x="240" y="300" width="150" height="30" as="geometry" />
        </mxCell>
        <mxCell id="XDIb_LJNzdVxrL4WUdWw-19" value="Gets game changes or game end" style="text;html=1;align=center;verticalAlign=middle;resizable=0;points=[];autosize=1;strokeColor=none;fillColor=none;" vertex="1" parent="1">
          <mxGeometry x="110" y="260" width="200" height="30" as="geometry" />
        </mxCell>
        <mxCell id="XDIb_LJNzdVxrL4WUdWw-20" value="Gets game changes or game end" style="text;html=1;align=center;verticalAlign=middle;resizable=0;points=[];autosize=1;strokeColor=none;fillColor=none;" vertex="1" parent="1">
          <mxGeometry x="120" y="210" width="200" height="30" as="geometry" />
        </mxCell>
        <mxCell id="XDIb_LJNzdVxrL4WUdWw-21" value="Make a move in game" style="text;html=1;align=center;verticalAlign=middle;resizable=0;points=[];autosize=1;strokeColor=none;fillColor=none;" vertex="1" parent="1">
          <mxGeometry x="200" y="140" width="140" height="30" as="geometry" />
        </mxCell>
        <mxCell id="XDIb_LJNzdVxrL4WUdWw-22" value="Make a move in game" style="text;html=1;align=center;verticalAlign=middle;resizable=0;points=[];autosize=1;strokeColor=none;fillColor=none;" vertex="1" parent="1">
          <mxGeometry x="240" y="330" width="140" height="30" as="geometry" />
        </mxCell>
        <mxCell id="XDIb_LJNzdVxrL4WUdWw-23" value="Admin" style="ellipse;whiteSpace=wrap;html=1;" vertex="1" parent="1">
          <mxGeometry x="110" y="10" width="120" height="80" as="geometry" />
        </mxCell>
        <mxCell id="XDIb_LJNzdVxrL4WUdWw-24" value="" style="endArrow=classic;html=1;rounded=0;exitX=0.92;exitY=0.79;exitDx=0;exitDy=0;exitPerimeter=0;entryX=0.5;entryY=0;entryDx=0;entryDy=0;" edge="1" parent="1" source="XDIb_LJNzdVxrL4WUdWw-23" target="XDIb_LJNzdVxrL4WUdWw-4">
          <mxGeometry width="50" height="50" relative="1" as="geometry">
            <mxPoint x="400" y="280" as="sourcePoint" />
            <mxPoint x="440" y="190" as="targetPoint" />
          </mxGeometry>
        </mxCell>
        <mxCell id="XDIb_LJNzdVxrL4WUdWw-25" value="Matches users for game" style="text;html=1;align=center;verticalAlign=middle;resizable=0;points=[];autosize=1;strokeColor=none;fillColor=none;" vertex="1" parent="1">
          <mxGeometry x="445" y="150" width="150" height="30" as="geometry" />
        </mxCell>
        <mxCell id="XDIb_LJNzdVxrL4WUdWw-26" value="Matches users for game" style="text;html=1;align=center;verticalAlign=middle;resizable=0;points=[];autosize=1;strokeColor=none;fillColor=none;" vertex="1" parent="1">
          <mxGeometry x="460" y="300" width="150" height="30" as="geometry" />
        </mxCell>
        <mxCell id="XDIb_LJNzdVxrL4WUdWw-27" value="Changes to game or global settings" style="text;html=1;align=center;verticalAlign=middle;resizable=0;points=[];autosize=1;strokeColor=none;fillColor=none;" vertex="1" parent="1">
          <mxGeometry x="230" y="60" width="210" height="30" as="geometry" />
        </mxCell>
      </root>
    </mxGraphModel>
  </diagram>
</mxfile>
